<?xml version="1.0" encoding="iso-8859-1"?>
<svg version="1.1" xmlns="http://www.w3.org/2000/svg" xmlns:xlink="http://www.w3.org/1999/xlink" x="0px" y="0px"
	 height="27" width="27" style="fill:#eeeeee;">
	<g>
		<path d="M0.614,2.145V24.84c0,1.188,0.961,2.146,2.145,2.146h21.467c1.184,0,2.146-0.959,2.146-2.146V2.145
			C26.372,0.963,25.409,0,24.225,0H2.759C1.575,0,0.614,0.963,0.614,2.145z M8.778,20.82c0,1.533-1.244,2.779-2.777,2.779
			c-1.535,0-2.777-1.246-2.777-2.779c0-1.531,1.242-2.777,2.777-2.777C7.534,18.043,8.778,19.289,8.778,20.82z M23.696,5.596
			c0,1.535-1.246,2.779-2.779,2.779c-1.531,0-2.775-1.244-2.775-2.779c0-1.533,1.244-2.777,2.775-2.777
			C22.45,2.818,23.696,4.062,23.696,5.596z"/>
	</g>
</svg>
