<?xml version="1.0" encoding="iso-8859-1"?>
<svg version="1.1" xmlns="http://www.w3.org/2000/svg" xmlns:xlink="http://www.w3.org/1999/xlink" x="0px" y="0px"
	 height="27" width="27" style="fill:#eeeeee;">
	<g>
		<path d="M24.842,0.615H2.147C0.958,0.615,0,1.576,0,2.76v21.467c0,1.184,0.958,2.145,2.147,2.145h22.695
			c1.183,0,2.146-0.961,2.146-2.145V2.76C26.989,1.576,26.025,0.615,24.842,0.615z M6.167,8.779C4.633,8.779,3.389,7.535,3.389,6
			c0-1.531,1.244-2.777,2.778-2.777S8.945,4.469,8.945,6C8.944,7.536,7.7,8.779,6.167,8.779z M13.495,16.271
			c-1.534,0-2.778-1.242-2.778-2.777c0-1.533,1.244-2.777,2.778-2.777c1.532,0,2.778,1.244,2.778,2.777
			C16.273,15.029,15.027,16.271,13.495,16.271z M21.164,23.619c-1.533,0-2.777-1.244-2.777-2.777s1.244-2.777,2.777-2.777
			s2.777,1.244,2.777,2.777S22.697,23.619,21.164,23.619z M21.005,8.826c-1.535,0-2.779-1.244-2.779-2.775
			c0-1.533,1.244-2.777,2.779-2.777c1.533,0,2.777,1.244,2.777,2.777C23.783,7.582,22.539,8.826,21.005,8.826z M6.235,23.556
			c-1.533,0-2.776-1.244-2.776-2.777c0-1.535,1.244-2.777,2.776-2.777s2.776,1.242,2.776,2.777
			C9.011,22.312,7.768,23.556,6.235,23.556z"/>
	</g>
</svg>
