<?xml version="1.0" encoding="iso-8859-1"?>
<svg version="1.1" xmlns="http://www.w3.org/2000/svg" xmlns:xlink="http://www.w3.org/1999/xlink" x="0px" y="0px"
	 height="27" width="27" style="fill:#eeeeee;">
	<g>
		<path d="M24.84,0.616H2.145C0.959,0.616,0,1.579,0,2.762v21.465c0,1.184,0.959,2.145,2.145,2.145H24.84
			c1.186,0,2.148-0.961,2.148-2.145V2.762C26.988,1.579,26.025,0.616,24.84,0.616z M6.164,8.78c-1.533,0-2.777-1.244-2.777-2.775
			c0-1.535,1.244-2.779,2.777-2.779c1.535,0,2.779,1.244,2.779,2.779C8.943,7.536,7.699,8.78,6.164,8.78z M21.164,23.62
			c-1.535,0-2.779-1.244-2.779-2.777s1.244-2.777,2.779-2.777c1.531,0,2.777,1.244,2.777,2.777S22.695,23.62,21.164,23.62z
			 M21.004,8.829c-1.533,0-2.777-1.244-2.777-2.775c0-1.535,1.244-2.777,2.777-2.777s2.777,1.242,2.777,2.777
			C23.781,7.585,22.537,8.829,21.004,8.829z M6.232,23.557c-1.529,0-2.777-1.244-2.777-2.779c0-1.531,1.248-2.775,2.777-2.775
			c1.535,0,2.779,1.244,2.779,2.775C9.012,22.313,7.768,23.557,6.232,23.557z"/>
	</g>
</svg>
