<?xml version="1.0" encoding="iso-8859-1"?>
<svg version="1.1" xmlns="http://www.w3.org/2000/svg" xmlns:xlink="http://www.w3.org/1999/xlink" x="0px" y="0px"
	 height="27" width="27" style="fill:#eeeeee;">
	<g>
		<path d="M24.842,0.615H2.146C0.959,0.615,0,1.576,0,2.76v21.469c0,1.182,0.959,2.145,2.146,2.145h22.695
			c1.186,0,2.148-0.963,2.148-2.145V2.76C26.99,1.576,26.027,0.615,24.842,0.615z M13.494,15.525c-1.531,0-2.777-1.244-2.777-2.775
			c0-1.535,1.246-2.781,2.777-2.781c1.533,0,2.777,1.246,2.777,2.781C16.271,14.281,15.027,15.525,13.494,15.525z"/>
	</g>
</svg>
